<svg width="28" height="32" viewBox="0 0 28 32" fill="none" xmlns="http://www.w3.org/2000/svg">
<style>
  path {
    fill: #007e8a;
  }
  @media (prefers-color-scheme: dark) {
    path {
      fill: #ffffff;
    }
  }
</style>
<path fill-rule="evenodd" clip-rule="evenodd" d="M15.5001 0.711326C14.5719 0.175428 13.4284 0.175428 12.5001 0.711326L1.50977 7.05663C0.581563 7.59252 0.00976562 8.5829 0.00976562 9.6547V22.3453C0.00976562 23.4171 0.581562 24.4075 1.50977 24.9434L12.5001 31.2887C13.4283 31.8246 14.5719 31.8246 15.5001 31.2887L26.4905 24.9434C27.4187 24.4075 27.9905 23.4171 27.9905 22.3453V9.6547C27.9905 8.58291 27.4187 7.59252 26.4905 7.05663L15.5001 0.711326ZM13.5001 2.44338C13.8095 2.26474 14.1907 2.26474 14.5001 2.44338L24.5372 8.23827L14.3946 15L13.9996 15L8.43473 11.7537L8.43486 11.7535L6.69674 10.7396L6.69661 10.7397L2.9331 8.54427L13.5001 2.44338ZM2.00977 10.3211V22.3453C2.00977 22.7026 2.20036 23.0327 2.50977 23.2113L13.0001 29.268L13.0001 16.7133L12.9918 16.7275L2.00977 10.3211ZM15.0001 29.268L25.4905 23.2113C25.7999 23.0327 25.9905 22.7026 25.9905 22.3453V9.67308L22.1702 12.2199L22.1703 12.2202L20.48 13.3471L20.4799 13.3469L15.0001 17V22.9291L15.0006 22.929V24.945L15.0001 24.9451V29.268ZM17.9547 10.2232C16.8295 9.45153 15.4676 9 14.0001 9C12.4801 9 11.0731 9.48453 9.92538 10.3076L8.07314 9.22706C9.65641 7.84041 11.7301 7 14.0001 7C16.171 7 18.1623 7.76857 19.7168 9.04844L17.9547 10.2232ZM22.8184 14.1918L20.9764 15.4198C20.9921 15.6111 21.0001 15.8046 21.0001 16C21.0001 18.7922 19.3653 21.2026 17.0006 22.3262V24.4877C20.4959 23.2521 23.0001 19.9185 23.0001 16C23.0001 15.3807 22.9376 14.7759 22.8184 14.1918ZM11.0006 22.3266V24.488C7.50478 23.2527 5.00015 19.9188 5.00015 16C5.00015 15.4741 5.04526 14.9587 5.13182 14.4575L7.01403 15.5555C7.00482 15.7025 7.00015 15.8507 7.00015 16C7.00015 18.7926 8.63541 21.2032 11.0006 22.3266Z" fill="white"/>
</svg>
