<svg width="182" height="41" viewBox="0 0 182 41" fill="none" xmlns="http://www.w3.org/2000/svg">
<g clip-path="url(#clip0)">
<path d="M146.11 38.7918L144.625 35.6799C144.27 34.9448 143.907 34.1097 143.782 33.7171L143.754 33.7458C143.801 34.3008 143.811 35 143.821 35.5836L143.859 38.791H142.779V32.1668H144.023L145.632 35.4013C145.901 35.9513 146.129 36.5209 146.312 37.1054L146.341 37.0767C146.312 36.7415 146.245 35.7939 146.245 35.1904L146.226 32.1653H147.271V38.7903L146.11 38.7918Z" fill="#7DA5A8"/>
<path d="M149.241 36.6569V36.7304C149.241 37.4008 149.49 38.1087 150.437 38.1087C150.887 38.1087 151.28 37.9463 151.644 37.6302L152.055 38.2719C151.573 38.6917 150.953 38.92 150.313 38.9137C148.944 38.9137 148.083 37.9279 148.083 36.3768C148.083 35.5248 148.264 34.9602 148.686 34.4809C149.079 34.031 149.557 33.8295 150.171 33.8295C150.662 33.814 151.14 33.9928 151.501 34.3272C151.922 34.7102 152.133 35.3035 152.133 36.4334V36.6539L149.241 36.6569ZM150.169 34.6257C149.576 34.6257 149.25 35.0947 149.25 35.8798H151.04C151.041 35.0962 150.696 34.6257 150.169 34.6257Z" fill="#7DA5A8"/>
<path d="M157.732 38.8107H156.746L156.153 36.5803C156 36.0062 155.837 35.2571 155.837 35.2571H155.818C155.818 35.2571 155.744 35.7356 155.502 36.6259L154.917 38.8107H153.932L152.608 34.014L153.652 33.8669L154.182 36.2164C154.315 36.82 154.431 37.4897 154.431 37.4897H154.459C154.53 37.0513 154.623 36.6168 154.737 36.1878L155.358 33.9471H156.392L156.938 36.1297C157.139 36.9148 157.244 37.5081 157.244 37.5081H157.273C157.273 37.5081 157.387 36.7729 157.512 36.2061L158.01 33.9471H159.102L157.732 38.8107Z" fill="#7DA5A8"/>
<path d="M165.238 38.7918L164.664 37.767C164.204 36.9532 163.898 36.4937 163.534 36.1298C163.481 36.0668 163.415 36.0161 163.341 35.9813C163.266 35.9465 163.185 35.9284 163.103 35.9284V38.791H162.021V32.1667H164.041C165.525 32.1667 166.195 33.0283 166.195 34.0627C166.195 35.0102 165.583 35.8814 164.548 35.8814C164.788 36.0056 165.228 36.6474 165.572 37.2046L166.549 38.794L165.238 38.7918ZM163.706 33.0577H163.102V35.1543H163.665C164.239 35.1543 164.547 35.0808 164.747 34.8764C164.928 34.6949 165.041 34.417 165.041 34.0722C165.047 33.4018 164.683 33.057 163.706 33.057V33.0577Z" fill="#7DA5A8"/>
<path d="M167.995 36.6569V36.7304C167.995 37.4008 168.244 38.1087 169.191 38.1087C169.641 38.1087 170.034 37.9463 170.398 37.6302L170.809 38.2719C170.327 38.6917 169.707 38.92 169.067 38.9137C167.698 38.9137 166.837 37.9279 166.837 36.3768C166.837 35.5248 167.018 34.9602 167.44 34.4809C167.833 34.031 168.311 33.8295 168.925 33.8295C169.416 33.814 169.894 33.9928 170.255 34.3272C170.676 34.7102 170.887 35.3035 170.887 36.4334V36.6539L167.995 36.6569ZM168.924 34.6257C168.331 34.6257 168.005 35.0947 168.005 35.8798H169.795C169.795 35.0962 169.45 34.6257 168.924 34.6257Z" fill="#7DA5A8"/>
<path d="M172.858 38.8967C171.795 38.8967 171.795 37.9411 171.795 37.5279V33.4016C171.806 32.9275 171.774 32.4534 171.7 31.985L172.78 31.7454C172.854 32.0394 172.866 32.4445 172.866 33.076V37.1831C172.866 37.8345 172.895 37.9396 172.971 38.0543C173.013 38.1021 173.069 38.1352 173.132 38.1484C173.194 38.1617 173.259 38.1544 173.316 38.1278L173.488 38.7791C173.288 38.859 173.074 38.899 172.858 38.8967Z" fill="#7DA5A8"/>
<path d="M174.687 33.2289C174.596 33.228 174.506 33.2092 174.423 33.1735C174.34 33.1378 174.264 33.086 174.201 33.021C174.138 32.956 174.088 32.8791 174.055 32.7948C174.021 32.7105 174.005 32.6204 174.007 32.5297C174.008 32.3921 174.05 32.2579 174.127 32.1442C174.205 32.0305 174.314 31.9424 174.442 31.8911C174.57 31.8398 174.71 31.8276 174.844 31.8561C174.979 31.8846 175.102 31.9525 175.198 32.0512C175.294 32.1498 175.358 32.2748 175.383 32.4102C175.408 32.5455 175.392 32.6852 175.337 32.8114C175.282 32.9377 175.191 33.0448 175.075 33.1191C174.959 33.1934 174.824 33.2316 174.687 33.2289ZM174.16 38.7916V34.0235L175.223 33.8324V38.7916H174.16Z" fill="#7DA5A8"/>
<path d="M178.239 38.916C176.916 38.916 176.18 37.9875 176.18 36.4268C176.18 34.6625 177.234 33.823 178.312 33.823C178.839 33.823 179.222 33.9472 179.652 34.3494L179.126 35.0485C178.839 34.7897 178.59 34.675 178.312 34.675C178.151 34.6723 177.992 34.7171 177.856 34.8039C177.72 34.8907 177.612 35.0156 177.546 35.1631C177.399 35.4572 177.346 35.91 177.346 36.5128C177.346 37.1745 177.451 37.595 177.671 37.8361C177.752 37.9252 177.852 37.9961 177.962 38.044C178.073 38.0919 178.192 38.1157 178.313 38.114C178.648 38.114 178.975 37.9515 179.289 37.6354L179.787 38.2772C179.349 38.7153 178.889 38.916 178.239 38.916Z" fill="#7DA5A8"/>
<path d="M180.687 38.8976C180.547 38.8983 180.409 38.8572 180.292 38.7796C180.174 38.7019 180.082 38.5911 180.028 38.4613C179.974 38.3315 179.959 38.1884 179.986 38.0503C180.013 37.9121 180.081 37.7851 180.18 37.6853C180.279 37.5856 180.406 37.5175 180.544 37.4898C180.682 37.462 180.825 37.4759 180.955 37.5296C181.085 37.5833 181.196 37.6744 181.275 37.7914C181.353 37.9084 181.395 38.0459 181.395 38.1867C181.395 38.2798 181.377 38.3722 181.342 38.4583C181.306 38.5445 181.254 38.6229 181.189 38.6889C181.123 38.755 181.045 38.8074 180.959 38.8432C180.873 38.879 180.781 38.8975 180.687 38.8976ZM180.687 37.617C180.573 37.612 180.46 37.6413 180.363 37.7011C180.266 37.7609 180.188 37.8486 180.141 37.9527C180.094 38.0568 180.079 38.1726 180.099 38.2852C180.118 38.3978 180.171 38.502 180.25 38.5844C180.329 38.6669 180.431 38.7237 180.543 38.7476C180.654 38.7715 180.771 38.7614 180.877 38.7186C180.983 38.6758 181.073 38.6023 181.137 38.5075C181.201 38.4127 181.235 38.3009 181.234 38.1867C181.236 38.1133 181.224 38.0402 181.197 37.9716C181.171 37.9031 181.131 37.8406 181.08 37.7876C181.029 37.7346 180.968 37.6922 180.901 37.6629C180.833 37.6336 180.761 37.618 180.687 37.617ZM180.827 38.58C180.796 38.5263 180.783 38.5065 180.754 38.4484C180.675 38.3014 180.651 38.2646 180.622 38.2536C180.614 38.2496 180.606 38.2476 180.597 38.2477V38.58H180.44V37.7868H180.734C180.766 37.7846 180.797 37.7892 180.826 37.8001C180.856 37.811 180.883 37.8281 180.905 37.8501C180.927 37.8722 180.944 37.8987 180.956 37.928C180.967 37.9572 180.972 37.9885 180.97 38.0198C180.974 38.0724 180.958 38.1248 180.925 38.1659C180.892 38.207 180.844 38.2337 180.792 38.2404C180.804 38.2504 180.815 38.262 180.824 38.2749C180.87 38.3323 181.015 38.5844 181.015 38.5844L180.827 38.58ZM180.743 37.9228C180.714 37.9146 180.684 37.9107 180.654 37.911H180.596V38.1271H180.646C180.715 38.1271 180.746 38.1198 180.767 38.1007C180.787 38.0791 180.798 38.0503 180.798 38.0206C180.8 38.0006 180.797 37.9802 180.787 37.9626C180.777 37.945 180.762 37.931 180.743 37.9228Z" fill="#7DA5A8"/>
<path d="M132.554 41C129.809 41 127.563 39.4849 127.092 37.3148C126.514 34.6558 128.756 31.9027 132.09 31.1772C132.627 31.06 133.175 31.0006 133.724 31C136.469 31 138.715 32.5151 139.187 34.6845C139.468 35.979 139.099 37.331 138.147 38.4932C137.195 39.6554 135.795 40.4722 134.188 40.8221C133.651 40.9395 133.104 40.9991 132.554 41ZM133.723 31.2963C133.195 31.2963 132.669 31.3527 132.153 31.4646C128.977 32.1549 126.835 34.7514 127.379 37.2523C127.82 39.2857 129.952 40.7074 132.554 40.7074C133.083 40.7067 133.609 40.6496 134.125 40.5369C135.669 40.2009 137.017 39.4099 137.919 38.3094C138.821 37.2089 139.161 35.957 138.899 34.7492C138.457 32.7143 136.329 31.2941 133.724 31.2941L133.723 31.2963Z" fill="#7DA5A8"/>
<path d="M133.665 39.6525C132.96 39.6524 132.27 39.4431 131.684 39.051C131.098 38.659 130.64 38.1019 130.371 37.4501C130.101 36.7984 130.03 36.0812 130.168 35.3893C130.306 34.6975 130.645 34.062 131.144 33.5632C131.643 33.0645 132.279 32.7249 132.971 32.5873C133.662 32.4497 134.38 32.5204 135.031 32.7904C135.683 33.0604 136.24 33.5175 136.632 34.1041C137.024 34.6906 137.233 35.3802 137.233 36.0857C137.232 37.0314 136.856 37.9381 136.187 38.6068C135.518 39.2755 134.611 39.6515 133.665 39.6525ZM133.665 32.8158C133.018 32.8159 132.385 33.008 131.847 33.3677C131.309 33.7274 130.89 34.2386 130.642 34.8367C130.395 35.4347 130.33 36.0927 130.456 36.7275C130.583 37.3624 130.894 37.9454 131.352 38.4031C131.81 38.8607 132.393 39.1724 133.028 39.2986C133.663 39.4248 134.321 39.3599 134.919 39.1122C135.517 38.8645 136.028 38.445 136.387 37.9068C136.747 37.3686 136.939 36.7359 136.939 36.0886C136.939 35.2203 136.594 34.3875 135.98 33.7733C135.366 33.1591 134.534 32.8136 133.665 32.8129V32.8158Z" fill="#7DA5A8"/>
<path d="M133.139 38.2279C132.699 38.2279 132.268 38.0972 131.902 37.8525C131.535 37.6077 131.25 37.2598 131.081 36.8528C130.913 36.4458 130.868 35.9979 130.954 35.5658C131.04 35.1338 131.253 34.7369 131.564 34.4254C131.876 34.1138 132.272 33.9017 132.705 33.8158C133.137 33.7298 133.584 33.7739 133.991 33.9425C134.398 34.1111 134.746 34.3966 134.991 34.7629C135.236 35.1292 135.367 35.5599 135.367 36.0004C135.366 36.5909 135.131 37.157 134.713 37.5746C134.296 37.9921 133.73 38.2271 133.139 38.2279ZM133.139 34.067C132.757 34.067 132.383 34.1804 132.065 34.3928C131.747 34.6053 131.499 34.9072 131.353 35.2605C131.207 35.6138 131.168 36.0025 131.243 36.3776C131.317 36.7526 131.502 37.0971 131.772 37.3675C132.042 37.6379 132.387 37.822 132.762 37.8966C133.137 37.9712 133.526 37.933 133.879 37.7866C134.232 37.6403 134.534 37.3925 134.747 37.0745C134.959 36.7566 135.072 36.3828 135.072 36.0004C135.072 35.4878 134.868 34.9964 134.506 34.6339C134.143 34.2715 133.652 34.0676 133.139 34.067Z" fill="#7DA5A8"/>
</g>
<path fill-rule="evenodd" clip-rule="evenodd" d="M44.2949 25.3093C45.3528 25.7677 46.4951 25.9969 47.7216 25.9969C48.9481 25.9969 50.0904 25.7677 51.1483 25.3093C52.2063 24.8508 53.1332 24.2159 53.9322 23.4074C54.728 22.599 55.3491 21.6667 55.7954 20.6073C56.2416 19.548 56.4632 18.4112 56.4632 17.1939C56.4632 15.9766 56.2385 14.8399 55.7954 13.7806C55.3522 12.7243 54.7311 11.7889 53.9322 10.9805C53.1332 10.172 52.2063 9.54015 51.1483 9.09102C50.0904 8.64189 48.9481 8.41577 47.7216 8.41577C46.4951 8.41577 45.3528 8.64189 44.2949 9.09102C43.2369 9.54324 42.31 10.172 41.511 10.9805C40.7152 11.7889 40.091 12.7212 39.6479 13.7806C39.2016 14.8399 38.98 15.9766 38.98 17.1939C38.98 18.4112 39.2016 19.548 39.6479 20.6073C40.091 21.6667 40.7121 22.599 41.511 23.4074C42.3069 24.2159 43.2369 24.8508 44.2949 25.3093ZM50.5928 22.1932C49.7876 22.7446 48.8295 23.0203 47.7216 23.0203C46.6137 23.0203 45.6493 22.7446 44.8348 22.1932C44.0202 21.645 43.396 20.9233 42.9591 20.0312C42.5222 19.1391 42.3037 18.1665 42.3037 17.1165C42.3037 16.0479 42.5222 15.0722 42.9591 14.1894C43.3929 13.3066 44.0202 12.5973 44.8348 12.0646C45.6525 11.5318 46.6137 11.2654 47.7216 11.2654C48.8326 11.2654 49.7939 11.5318 50.6084 12.0646C51.4199 12.5973 52.0472 13.3066 52.4841 14.1894C52.921 15.0753 53.1395 16.051 53.1395 17.1165C53.1395 18.1665 52.9179 19.1391 52.4716 20.0312C52.0253 20.9233 51.398 21.6419 50.5928 22.1932ZM59.0349 13.8177V30.547H61.9841V25.3216C62.4211 25.4889 62.8393 25.6345 63.2325 25.7584C63.6257 25.8854 64.2093 25.9473 64.9833 25.9473C65.8228 25.9473 66.6405 25.7862 67.4394 25.461C68.2353 25.1358 68.9718 24.5813 69.6428 23.7977C70.0454 23.3145 70.3825 22.7477 70.6508 22.0972C70.9192 21.4467 71.0534 20.6631 71.0534 19.7462C71.0534 18.6962 70.8599 17.705 70.473 16.7696C70.086 15.8341 69.5024 15.0722 68.7221 14.4806C67.9388 13.8889 66.9464 13.5916 65.7354 13.5916C64.7617 13.5916 63.9659 13.7681 63.3542 14.1182C62.7425 14.4682 62.2837 14.8089 61.981 15.1434L61.9061 13.8177H59.0349ZM61.9841 22.6671V19.1918C61.9841 18.7427 62.109 18.2811 62.3618 17.7979C62.6146 17.324 62.961 16.9275 63.4073 16.6116C63.8504 16.2957 64.3747 16.1377 64.9802 16.1377C65.7354 16.1377 66.3409 16.3019 66.7934 16.6271C67.2491 16.9523 67.5705 17.386 67.764 17.928C67.9575 18.4701 68.0543 19.0741 68.0543 19.74C68.0543 20.3564 67.9201 20.9449 67.6517 21.5025C67.3833 22.06 66.9963 22.5153 66.4938 22.8654C65.9914 23.2154 65.3765 23.3919 64.6556 23.3919C63.4634 23.3919 62.5709 23.1503 61.9841 22.6671ZM82.9222 22.0445L84.5358 23.8442L84.1207 24.2561C83.896 24.4791 83.5652 24.7238 83.1376 24.9809C82.71 25.238 82.1639 25.4641 81.4991 25.6562C80.8344 25.8482 80.0416 25.9442 79.1179 25.9442C77.857 25.9442 76.7616 25.6717 75.8284 25.1327C74.8953 24.5906 74.1681 23.838 73.65 22.8685C73.1288 21.9021 72.8698 20.7932 72.8698 19.5418C72.8698 18.3927 73.1257 17.355 73.6375 16.4289C74.1494 15.5027 74.8547 14.7686 75.7535 14.2297C76.6523 13.6876 77.6885 13.4182 78.8651 13.4182C79.9574 13.4182 80.8718 13.6102 81.6115 13.9943C82.3511 14.3784 82.9472 14.8894 83.3997 15.5337C83.8523 16.1749 84.18 16.8966 84.3828 17.6957C84.5857 18.4949 84.6856 19.3126 84.6856 20.1458V20.5702H75.8659C75.8659 21.137 76.0282 21.6326 76.3559 22.0569C76.6836 22.4813 77.0986 22.8158 77.6042 23.0574C78.1098 23.299 78.6216 23.4198 79.1397 23.4198C79.9137 23.4198 80.5504 23.3331 81.0559 23.1565C81.5615 22.9831 81.9641 22.7848 82.2669 22.568C82.5696 22.3543 82.7881 22.1777 82.9222 22.0445ZM75.8409 18.4422H81.6364C81.6364 18.0426 81.5303 17.6462 81.3212 17.2528C81.1121 16.8625 80.8063 16.5373 80.4006 16.2771C79.998 16.02 79.4861 15.8899 78.8651 15.8899C78.2097 15.8899 77.6604 16.02 77.2141 16.2771C76.7678 16.5342 76.4276 16.8594 76.1936 17.2528C75.9595 17.6462 75.8409 18.0426 75.8409 18.4422ZM86.9794 13.8177V25.5446V25.5477H89.9504V19.1949C89.9504 18.3276 90.2188 17.5935 90.7556 16.9926C91.2924 16.3917 91.9728 16.0912 92.7967 16.0912C93.4521 16.0912 93.9858 16.3018 94.3977 16.7169C94.8097 17.132 95.0157 17.7081 95.0157 18.4422V25.5446H97.9899V18.4174C97.9899 16.9337 97.5998 15.7567 96.8195 14.8801C96.0393 14.0035 94.9158 13.5668 93.4552 13.5668C92.5314 13.5668 91.7824 13.7464 91.2113 14.1057C90.6402 14.4651 90.2032 14.8089 89.9005 15.1434L89.8256 13.8177H86.9794ZM104.743 22.8685L106.962 20.8427C107.246 21.1432 107.584 21.4684 107.971 21.8184C108.358 22.1685 108.819 22.4689 109.356 22.7198C109.893 22.9707 110.514 23.0946 111.219 23.0946C112.212 23.0946 112.945 22.8654 113.426 22.407C113.903 21.9485 114.144 21.4096 114.144 20.7932C114.144 20.0777 113.85 19.517 113.26 19.1175C112.674 18.7179 111.622 18.3772 110.111 18.0922C109.088 17.8909 108.242 17.5502 107.58 17.0669C106.916 16.5837 106.423 16.0045 106.095 15.3293C105.767 14.654 105.605 13.9509 105.605 13.2168C105.605 12.365 105.82 11.5783 106.248 10.8535C106.675 10.1287 107.321 9.54015 108.189 9.09102C109.053 8.64189 110.143 8.41577 111.453 8.41577C112.343 8.41577 113.108 8.51179 113.747 8.70383C114.384 8.89588 114.918 9.12819 115.348 9.40386C115.776 9.67953 116.11 9.94591 116.344 10.203L116.512 10.3898L116.514 10.3916L116.515 10.3934C116.662 10.5564 116.774 10.6801 116.849 10.7667L114.758 12.7181C114.659 12.619 114.459 12.4425 114.166 12.1916C113.872 11.9407 113.495 11.7115 113.033 11.5039C112.571 11.2964 112.012 11.1911 111.357 11.1911C110.483 11.1911 109.84 11.3986 109.428 11.8168C109.016 12.2349 108.81 12.65 108.81 13.0681C108.81 13.6505 109.05 14.1306 109.528 14.5054C110.005 14.8802 110.935 15.2085 112.312 15.4934C113.186 15.6762 114.003 15.9736 114.768 16.3824C115.532 16.7913 116.15 17.3581 116.622 18.0829C117.093 18.8077 117.327 19.737 117.327 20.8706C117.327 21.837 117.068 22.7074 116.547 23.4849C116.026 24.2592 115.308 24.8725 114.393 25.3217C113.479 25.7708 112.44 25.9969 111.282 25.9969C110.174 25.9969 109.194 25.8296 108.345 25.4982C107.496 25.1637 106.775 24.7517 106.179 24.2592C105.571 23.7667 105.096 23.3021 104.743 22.8685ZM120.367 16.5435C119.83 17.4944 119.561 18.5352 119.561 19.6689C119.561 20.8025 119.83 21.8433 120.367 22.7942C120.903 23.7451 121.646 24.5071 122.595 25.0832C123.544 25.6593 124.648 25.9474 125.909 25.9474C127.17 25.9474 128.275 25.6593 129.224 25.0832C130.172 24.5071 130.918 23.7451 131.455 22.7942C131.992 21.8433 132.26 20.8025 132.26 19.6689C132.26 18.5352 131.992 17.4944 131.455 16.5435C130.915 15.5926 130.172 14.8337 129.224 14.2669C128.275 13.7001 127.17 13.4151 125.909 13.4151C124.648 13.4151 123.544 13.7001 122.595 14.2669C121.646 14.8337 120.903 15.5926 120.367 16.5435ZM127.788 22.819C127.292 23.203 126.665 23.3951 125.909 23.3951C125.154 23.3951 124.527 23.203 124.034 22.819C123.537 22.438 123.169 21.9579 122.926 21.3817C122.682 20.8056 122.561 20.2357 122.561 19.6689C122.561 19.102 122.682 18.5352 122.926 17.9684C123.169 17.4015 123.537 16.9276 124.034 16.5435C124.527 16.1594 125.154 15.9674 125.909 15.9674C126.668 15.9674 127.292 16.1594 127.788 16.5435C128.281 16.9276 128.653 17.4015 128.896 17.9684C129.139 18.5352 129.261 19.102 129.261 19.6689C129.261 20.2357 129.139 20.8056 128.896 21.3817C128.653 21.9548 128.284 22.4349 127.788 22.819ZM134.576 20.9449V13.8177H137.55V20.9201C137.55 21.6542 137.756 22.2304 138.168 22.6454C138.58 23.0636 139.114 23.2711 139.769 23.2711C140.593 23.2711 141.274 22.9706 141.81 22.3697C142.347 21.7688 142.616 21.0347 142.616 20.1675V13.8177H145.59V25.5477H142.743L142.669 24.222C142.366 24.5565 141.932 24.9004 141.37 25.2597C140.809 25.619 140.056 25.7986 139.114 25.7986C137.653 25.7986 136.53 25.3557 135.75 24.4729C134.969 23.587 134.576 22.41 134.576 20.9449ZM148.511 13.8177V25.5416H151.479V19.2135C151.479 18.3462 151.775 17.6554 152.362 17.1382C152.949 16.624 153.654 16.3638 154.478 16.3638C154.981 16.3638 155.436 16.4382 155.839 16.5899L156.444 13.8146C156.21 13.7341 155.979 13.6752 155.751 13.6412C155.527 13.6071 155.271 13.5916 154.984 13.5916C154.344 13.5916 153.795 13.6876 153.333 13.8797C152.871 14.0717 152.487 14.2978 152.175 14.5549C151.863 14.812 151.616 15.0598 151.432 15.2921L151.357 13.8177H148.511ZM166.528 22.0942L168.291 23.996C167.736 24.5783 167.077 25.046 166.313 25.396C165.548 25.746 164.671 25.9226 163.678 25.9226C162.333 25.9226 161.188 25.6593 160.239 25.1358C159.291 24.6093 158.566 23.8783 158.073 22.9336C157.577 21.9919 157.331 20.9047 157.331 19.6688C157.331 18.5352 157.599 17.4944 158.136 16.5435C158.673 15.5926 159.415 14.8337 160.364 14.2669C161.313 13.7001 162.418 13.4151 163.678 13.4151C164.637 13.4151 165.51 13.5855 166.3 13.9262C167.09 14.2669 167.761 14.7315 168.316 15.3138L166.425 17.2157C166.107 16.8316 165.716 16.5311 165.255 16.3143C164.793 16.0975 164.268 15.9891 163.678 15.9891C162.923 15.9891 162.296 16.1656 161.803 16.5156C161.307 16.8657 160.938 17.321 160.695 17.8785C160.451 18.4361 160.33 19.0339 160.33 19.6658C160.33 20.2481 160.451 20.8242 160.695 21.391C160.938 21.9579 161.307 22.4256 161.803 22.7911C162.299 23.1597 162.923 23.3424 163.678 23.3424C164.265 23.3424 164.808 23.2309 165.304 23.0048C165.801 22.7818 166.21 22.4782 166.528 22.0942ZM181.018 23.8442L179.405 22.0445C179.27 22.1777 179.052 22.3543 178.749 22.568C178.447 22.7848 178.041 22.9831 177.538 23.1565C177.033 23.3331 176.396 23.4198 175.622 23.4198C175.104 23.4198 174.589 23.299 174.087 23.0574C173.581 22.8158 173.166 22.4813 172.838 22.0569C172.511 21.6326 172.348 21.137 172.348 20.5702H181.168V20.1458C181.168 19.3126 181.068 18.4949 180.865 17.6957C180.662 16.8966 180.335 16.1749 179.882 15.5337C179.43 14.8894 178.834 14.3784 178.094 13.9943C177.354 13.6102 176.44 13.4182 175.347 13.4182C174.171 13.4182 173.135 13.6876 172.236 14.2297C171.337 14.7686 170.632 15.5027 170.12 16.4289C169.608 17.355 169.352 18.3927 169.352 19.5418C169.352 20.7932 169.611 21.9021 170.132 22.8685C170.651 23.838 171.378 24.5906 172.311 25.1327C173.244 25.6717 174.339 25.9442 175.6 25.9442C176.524 25.9442 177.317 25.8482 177.982 25.6562C178.646 25.4641 179.192 25.238 179.62 24.9809C180.048 24.7238 180.378 24.4791 180.603 24.2561L181.018 23.8442ZM178.119 18.4422H172.323C172.323 18.0426 172.442 17.6462 172.676 17.2528C172.91 16.8594 173.25 16.5342 173.697 16.2771C174.143 16.02 174.692 15.8899 175.347 15.8899C175.969 15.8899 176.48 16.02 176.883 16.2771C177.286 16.5373 177.595 16.8625 177.804 17.2528C178.013 17.6462 178.119 18.0426 178.119 18.4422Z" fill="#7DA5A8"/>
<path fill-rule="evenodd" clip-rule="evenodd" d="M13.7382 34.3544C14.4279 34.7509 15.1956 34.946 15.9665 34.946C16.7342 34.946 17.502 34.7508 18.1855 34.3606L29.7047 27.828C31.0748 27.0413 31.9299 25.5762 31.9299 24.0058V10.9438C31.9299 10.2408 31.7598 9.55938 31.4488 8.95045C31.423 8.85327 31.3839 8.75788 31.3307 8.66672C31.2704 8.56324 31.1963 8.47254 31.1121 8.39556C30.7461 7.88139 30.2683 7.44244 29.7016 7.11849L18.1917 0.592161C16.8185 -0.194591 15.1145 -0.194591 13.7444 0.589064L2.2252 7.12159C1.6637 7.44402 1.18869 7.87988 0.823591 8.39034C0.737013 8.46843 0.660945 8.5609 0.599248 8.66672C0.545107 8.75958 0.505485 8.85684 0.479682 8.9559C0.16994 9.56309 0 10.2424 0 10.9438V24.0058C0 25.5762 0.855125 27.0413 2.23144 27.828L13.7382 34.3544ZM29.6048 23.9996V10.9906L17.1119 18.1644V32.3087L28.5468 25.824C29.196 25.4523 29.6048 24.7523 29.6048 23.9996ZM3.38617 25.8271L14.8211 32.3109V18.1644L2.32195 10.9887V24.0027C2.32195 24.7523 2.73078 25.4523 3.38617 25.8271ZM15.9665 16.1564L28.3795 9.02802L17.0338 2.59002C16.703 2.40107 16.3316 2.30505 15.9634 2.30505C15.5951 2.30505 15.23 2.39797 14.9023 2.58692L3.54755 9.02616L15.9665 16.1564ZM8.69481 10.0914C10.5736 8.26705 13.139 7.14577 15.9634 7.14577C18.7909 7.14577 21.3563 8.26705 23.2351 10.0914L21.1222 11.3025C19.7209 10.1472 17.9202 9.45027 15.9634 9.45027C14.0066 9.45027 12.2058 10.1503 10.8077 11.3025L8.69481 10.0914ZM7.99573 16.1408C7.92395 16.5713 7.88337 17.0173 7.88337 17.4727C7.88337 20.917 10.0774 23.8534 13.1514 24.9933V27.4186C8.77595 26.1982 5.55831 22.2025 5.55831 17.4758C5.55831 16.5961 5.67066 15.7412 5.87976 14.9266L7.99573 16.1408ZM23.9341 16.1377L26.0501 14.9235C26.2592 15.7412 26.3716 16.5961 26.3716 17.4696C26.3716 22.1963 23.1508 26.1889 18.7753 27.4124V24.9871C21.8525 23.8503 24.0465 20.9139 24.0465 17.4696C24.0465 17.0142 24.0059 16.5713 23.9341 16.1377Z" fill="#7DA5A8"/>
<defs>
<clipPath id="clip0">
<rect x="127" y="31" width="54.3946" height="10" fill="white"/>
</clipPath>
</defs>
</svg>
