<svg width="14" height="14" viewBox="0 0 14 14" fill="none" xmlns="http://www.w3.org/2000/svg">
<path fill-rule="evenodd" clip-rule="evenodd" d="M6.73 1.18374C6.26 0.713735 5.62 0.453735 4.96 0.453735H2.5C1.13 0.453735 0 1.58374 0 2.95374V5.42374C0 6.08373 0.27 6.72374 0.73 7.19374L6.79 13.2537C7.18 13.6437 7.81 13.6437 8.2 13.2537L12.79 8.66374C12.8827 8.57122 12.9563 8.46133 13.0064 8.34036C13.0566 8.21939 13.0824 8.0897 13.0824 7.95874C13.0824 7.82777 13.0566 7.69808 13.0064 7.57711C12.9563 7.45614 12.8827 7.34625 12.79 7.25374L6.73 1.18374ZM1.38 6.54374C1.07 6.24374 0.91 5.84374 0.91 5.41374V2.95374C0.91 2.07374 1.63 1.36374 2.5 1.36374H4.97C5.39 1.36374 5.8 1.52374 6.1 1.83374L12.24 7.96374L7.51 12.6937L1.38 6.54374ZM2.01 2.45374H4.01V4.45374H2V2.45374H2.01Z" fill="#7C9799"/>
</svg>
