<svg width="13" height="14" viewBox="0 0 13 14" fill="none" xmlns="http://www.w3.org/2000/svg">
<path d="M12 13V12C12 11.4696 11.7103 10.9609 11.1945 10.5858C10.6788 10.2107 9.97935 10 9.25 10H3.75C3.02065 10 2.32118 10.2107 1.80546 10.5858C1.28973 10.9609 1 11.4696 1 12V13" fill="#000D0D"/>
<path d="M12 13V12C12 11.4696 11.7103 10.9609 11.1945 10.5858C10.6788 10.2107 9.97935 10 9.25 10H3.75C3.02065 10 2.32118 10.2107 1.80546 10.5858C1.28973 10.9609 1 11.4696 1 12V13H12Z" stroke="#000D0D" stroke-width="2" stroke-linecap="round" stroke-linejoin="round"/>
<path d="M6.49996 6.79167C8.06477 6.79167 9.33329 5.52314 9.33329 3.95833C9.33329 2.39353 8.06477 1.125 6.49996 1.125C4.93515 1.125 3.66663 2.39353 3.66663 3.95833C3.66663 5.52314 4.93515 6.79167 6.49996 6.79167Z" fill="#000D0D" stroke="#000D0D" stroke-width="2" stroke-linecap="round" stroke-linejoin="round"/>
</svg>
