<svg width="14" height="14" viewBox="0 0 14 14" fill="none" xmlns="http://www.w3.org/2000/svg">
<path fill-rule="evenodd" clip-rule="evenodd" d="M6.73 1.18361C6.26 0.713613 5.62 0.453613 4.96 0.453613H2.5C1.13 0.453613 0 1.58361 0 2.95361V5.42361C0 6.08361 0.27 6.72361 0.73 7.19361L6.79 13.2536C7.18 13.6436 7.81 13.6436 8.2 13.2536L12.79 8.66361C12.8827 8.5711 12.9563 8.46121 13.0064 8.34024C13.0566 8.21926 13.0824 8.08958 13.0824 7.95861C13.0824 7.82764 13.0566 7.69796 13.0064 7.57699C12.9563 7.45602 12.8827 7.34613 12.79 7.25361L6.73 1.18361ZM1.38 6.54361C1.07 6.24361 0.91 5.84361 0.91 5.41361V2.95361C0.91 2.07361 1.63 1.36361 2.5 1.36361H4.97C5.39 1.36361 5.8 1.52361 6.1 1.83361L12.24 7.96361L7.51 12.6936L1.38 6.54361ZM2.01 2.45361H4.01V4.45361H2V2.45361H2.01Z" fill="#8E9494"/>
</svg>
