<svg width="12" height="16" viewBox="0 0 12 16" fill="none" xmlns="http://www.w3.org/2000/svg">
<path fill-rule="evenodd" clip-rule="evenodd" d="M10.9983 11.78V5.5C10.9683 4.72 10.6583 4.03 10.0583 3.44C9.45827 2.85 8.77827 2.53 7.99827 2.5H6.99827V0.5L3.99827 3.5L6.99827 6.5V4.5H7.99827C8.26827 4.52 8.47827 4.61 8.68827 4.81C8.89827 5.01 8.98827 5.23 8.99827 5.5V11.78C8.61755 11.9993 8.31997 12.3382 8.15179 12.7441C7.98361 13.15 7.95427 13.6001 8.06833 14.0244C8.18239 14.4487 8.43345 14.8234 8.78247 15.0903C9.13149 15.3571 9.55892 15.5012 9.99827 15.5C10.4376 15.5012 10.865 15.3571 11.2141 15.0903C11.5631 14.8234 11.8141 14.4487 11.9282 14.0244C12.0423 13.6001 12.0129 13.15 11.8447 12.7441C11.6766 12.3382 11.379 11.9993 10.9983 11.78ZM9.99827 14.7C9.33827 14.7 8.79827 14.15 8.79827 13.5C8.79827 12.85 9.34827 12.3 9.99827 12.3C10.6483 12.3 11.1983 12.85 11.1983 13.5C11.1983 14.15 10.6483 14.7 9.99827 14.7ZM3.99827 3.5C3.99827 2.39 3.10827 1.5 1.99827 1.5C1.55892 1.49884 1.13149 1.64289 0.78247 1.90975C0.433447 2.17661 0.182385 2.55132 0.0683288 2.97561C-0.0457276 3.3999 -0.0163862 3.84999 0.15179 4.25588C0.319966 4.66177 0.617551 5.00071 0.998267 5.22V11.78C0.617551 11.9993 0.319966 12.3382 0.15179 12.7441C-0.0163862 13.15 -0.0457276 13.6001 0.0683288 14.0244C0.182385 14.4487 0.433447 14.8234 0.78247 15.0903C1.13149 15.3571 1.55892 15.5012 1.99827 15.5C2.43762 15.5012 2.86504 15.3571 3.21406 15.0903C3.56309 14.8234 3.81415 14.4487 3.9282 14.0244C4.04226 13.6001 4.01292 13.15 3.84474 12.7441C3.67657 12.3382 3.37898 11.9993 2.99827 11.78V5.22C3.58827 4.88 3.99827 4.24 3.99827 3.5ZM3.19827 13.5C3.19827 14.16 2.64827 14.7 1.99827 14.7C1.34827 14.7 0.798267 14.15 0.798267 13.5C0.798267 12.85 1.34827 12.3 1.99827 12.3C2.64827 12.3 3.19827 12.85 3.19827 13.5ZM1.99827 4.7C1.33827 4.7 0.798267 4.15 0.798267 3.5C0.798267 2.85 1.34827 2.3 1.99827 2.3C2.64827 2.3 3.19827 2.85 3.19827 3.5C3.19827 4.15 2.64827 4.7 1.99827 4.7Z" fill="#8E9494"/>
</svg>
