<svg width="20" height="21" viewBox="0 0 20 21" fill="none" xmlns="http://www.w3.org/2000/svg">
<path fill-rule="evenodd" clip-rule="evenodd" d="M2 9.44873C2 5.58274 5.13401 2.44873 9 2.44873C12.866 2.44873 16 5.58274 16 9.44873C16 11.3347 15.2542 13.0464 14.0414 14.3051C14.0072 14.3314 13.9743 14.3603 13.9429 14.3916C13.9115 14.423 13.8827 14.4559 13.8564 14.4901C12.5977 15.7029 10.8859 16.4487 9 16.4487C5.13401 16.4487 2 13.3147 2 9.44873ZM14.6177 16.4806C13.078 17.7123 11.125 18.4487 9 18.4487C4.02944 18.4487 0 14.4193 0 9.44873C0 4.47817 4.02944 0.44873 9 0.44873C13.9706 0.44873 18 4.47817 18 9.44873C18 11.5737 17.2635 13.5267 16.0319 15.0664L19.7071 18.7416C20.0976 19.1321 20.0976 19.7653 19.7071 20.1558C19.3166 20.5464 18.6834 20.5464 18.2929 20.1558L14.6177 16.4806Z" fill="#B9BDBD"/>
</svg>
