<svg width="16" height="14" viewBox="0 0 16 14" fill="none" xmlns="http://www.w3.org/2000/svg">
<path fill-rule="evenodd" clip-rule="evenodd" d="M16 12.4995C16 12.9385 15.55 13.4995 15 13.4995H7.995C7.456 13.4995 7.001 13.0525 7 12.5005H1C0.46 12.5005 0 11.9395 0 11.5005C0 8.86649 3 7.50049 3 7.50049C3 7.50049 3.229 7.09149 3 6.50049C2.159 5.87949 1.942 5.91049 2 3.50049C2.058 1.08149 3.367 0.500488 4.5 0.500488C5.633 0.500488 6.942 1.08049 7 3.50049C7.058 5.91049 6.841 5.87949 6 6.50049C5.771 7.09049 6 7.50049 6 7.50049C6 7.50049 7.549 8.21149 8.42 9.58849C9.196 8.86949 10 8.49949 10 8.49949C10 8.49949 10.229 8.09049 10 7.49949C9.159 6.87949 8.942 6.90949 9 4.49949C9.058 2.08049 10.367 1.49949 11.5 1.49949C12.633 1.49949 13.937 2.08049 13.995 4.49949C14.054 6.90949 13.837 6.87949 12.995 7.49949C12.766 8.08949 12.995 8.49949 12.995 8.49949C12.995 8.49949 16 9.86549 16 12.4995Z" fill="#8E9494"/>
</svg>
