<svg width="247" height="53" viewBox="0 0 247 53" fill="none" xmlns="http://www.w3.org/2000/svg">
<path d="M64.8524 35.3291C63.1856 35.3291 61.6333 35.0176 60.1956 34.3946C58.7578 33.7716 57.4939 32.9087 56.4124 31.81C55.3266 30.7114 54.4827 29.4444 53.8804 28.0048C53.2739 26.5652 52.9728 25.0204 52.9728 23.3661C52.9728 21.7118 53.2739 20.167 53.8804 18.7274C54.4827 17.2878 55.3309 16.0208 56.4124 14.9221C57.4982 13.8235 58.7578 12.969 60.1956 12.3544C61.6333 11.7441 63.1856 11.4368 64.8524 11.4368C66.5192 11.4368 68.0715 11.7441 69.5093 12.3544C70.947 12.9648 72.2067 13.8235 73.2924 14.9221C74.3782 16.0208 75.2222 17.292 75.8244 18.7274C76.4267 20.167 76.7321 21.7118 76.7321 23.3661C76.7321 25.0204 76.4309 26.5652 75.8244 28.0048C75.2179 29.4444 74.3739 30.7114 73.2924 31.81C72.2067 32.9087 70.947 33.7716 69.5093 34.3946C68.0715 35.0176 66.5192 35.3291 64.8524 35.3291ZM64.8524 31.2839C66.3581 31.2839 67.6601 30.9092 68.7543 30.16C69.8486 29.4107 70.7011 28.4341 71.3076 27.2218C71.914 26.0096 72.2152 24.6878 72.2152 23.2608C72.2152 21.8128 71.9183 20.4869 71.3245 19.283C70.7307 18.0833 69.8783 17.1194 68.7755 16.3954C67.6686 15.6714 66.3623 15.3094 64.8524 15.3094C63.3468 15.3094 62.0405 15.6714 60.9293 16.3954C59.8223 17.1194 58.9699 18.0833 58.3803 19.283C57.7866 20.4827 57.4897 21.8086 57.4897 23.2608C57.4897 24.6878 57.7866 26.0096 58.3803 27.2218C58.9741 28.4341 59.8223 29.4149 60.9293 30.16C62.0363 30.9092 63.3468 31.2839 64.8524 31.2839Z" fill="white" fill-opacity="0.9"/>
<path d="M80.2269 41.5127V18.778H84.1288L84.2306 20.5796C84.642 20.125 85.2654 19.662 86.0967 19.1863C86.928 18.7106 88.0095 18.4707 89.3328 18.4707C90.9783 18.4707 92.3271 18.8748 93.3916 19.6788C94.4519 20.4828 95.245 21.5183 95.7709 22.7895C96.2968 24.0607 96.5598 25.4077 96.5598 26.8347C96.5598 28.0807 96.3774 29.1456 96.0127 30.0296C95.6479 30.9136 95.1899 31.6839 94.6428 32.3405C93.7309 33.4055 92.73 34.159 91.6485 34.601C90.5627 35.0429 89.4515 35.2618 88.3106 35.2618C87.2588 35.2618 86.4657 35.1776 85.9313 35.0051C85.3969 34.8367 84.8286 34.6388 84.2348 34.4115V41.5127H80.2269ZM84.2348 26.0812V30.8041C85.0322 31.4608 86.2451 31.7891 87.8653 31.7891C88.845 31.7891 89.6805 31.5492 90.3634 31.0735C91.0462 30.5979 91.5721 29.9791 91.9369 29.2214C92.3016 28.4637 92.484 27.6639 92.484 26.8263C92.484 25.9213 92.3525 25.1004 92.0895 24.3638C91.8266 23.6272 91.3897 23.0379 90.7705 22.5959C90.1556 22.1539 89.3328 21.9308 88.3064 21.9308C87.4836 21.9308 86.7711 22.1455 86.1688 22.5748C85.5623 23.0042 85.0915 23.543 84.748 24.187C84.4045 24.8437 84.2348 25.4709 84.2348 26.0812Z" fill="white" fill-opacity="0.9"/>
<path d="M112.689 29.9579L114.882 32.4036C114.814 32.4709 114.623 32.6603 114.318 32.9634C114.012 33.2665 113.563 33.599 112.982 33.9484C112.401 34.2978 111.659 34.605 110.755 34.866C109.852 35.127 108.775 35.2575 107.519 35.2575C105.806 35.2575 104.317 34.8871 103.049 34.1546C101.781 33.418 100.793 32.3951 100.089 31.0776C99.3802 29.7643 99.0282 28.2573 99.0282 26.5568C99.0282 24.9951 99.376 23.585 100.072 22.3264C100.767 21.0678 101.726 20.0701 102.947 19.3377C104.169 18.6011 105.577 18.2349 107.176 18.2349C108.66 18.2349 109.903 18.4958 110.908 19.0178C111.913 19.5398 112.723 20.2343 113.338 21.1099C113.953 21.9812 114.398 22.962 114.674 24.048C114.95 25.134 115.085 26.2453 115.085 27.3776V27.9543H103.1C103.1 28.7246 103.32 29.3981 103.766 29.9748C104.211 30.5514 104.775 31.006 105.462 31.3344C106.149 31.6627 106.845 31.8269 107.549 31.8269C108.601 31.8269 109.466 31.709 110.153 31.4691C110.84 31.2334 111.387 30.964 111.799 30.6693C112.21 30.3789 112.507 30.1389 112.689 29.9579ZM103.066 25.0624H110.942C110.942 24.5194 110.798 23.9806 110.513 23.446C110.229 22.9157 109.814 22.4737 109.262 22.1201C108.715 21.7707 108.02 21.5939 107.176 21.5939C106.285 21.5939 105.538 21.7707 104.932 22.1201C104.325 22.4695 103.863 22.9115 103.545 23.446C103.227 23.9806 103.066 24.5194 103.066 25.0624Z" fill="white" fill-opacity="0.9"/>
<path d="M118.203 34.7146V18.778H122.071L122.172 20.5796C122.584 20.125 123.178 19.6577 123.954 19.1694C124.73 18.6812 125.748 18.437 127.003 18.437C128.988 18.437 130.515 19.0305 131.575 20.2218C132.636 21.413 133.166 23.0126 133.166 25.0289V34.7146H129.124V25.0625C129.124 24.0649 128.844 23.282 128.284 22.7179C127.724 22.1539 126.999 21.8676 126.108 21.8676C124.989 21.8676 124.064 22.2759 123.335 23.0926C122.605 23.9092 122.24 24.9068 122.24 26.0854V34.7188H118.203V34.7146Z" fill="white" fill-opacity="0.9"/>
<path d="M142.344 31.0776L145.359 28.3247C145.745 28.733 146.203 29.175 146.729 29.6506C147.255 30.1263 147.883 30.5346 148.612 30.8756C149.342 31.2165 150.186 31.3849 151.144 31.3849C152.493 31.3849 153.49 31.0734 154.143 30.4504C154.792 29.8274 155.118 29.095 155.118 28.2573C155.118 27.285 154.72 26.5231 153.918 25.9801C153.121 25.4371 151.691 24.9741 149.639 24.5868C148.247 24.3132 147.098 23.8502 146.199 23.1935C145.296 22.5368 144.625 21.7497 144.18 20.832C143.735 19.9144 143.514 18.9589 143.514 17.9613C143.514 16.8037 143.807 15.7345 144.388 14.7495C144.969 13.7645 145.847 12.9648 147.026 12.3544C148.201 11.7441 149.681 11.4368 151.462 11.4368C152.671 11.4368 153.71 11.5673 154.58 11.8282C155.445 12.0892 156.17 12.4049 156.755 12.7796C157.336 13.1542 157.79 13.5162 158.108 13.8656C158.426 14.2192 158.655 14.4717 158.795 14.6317L155.954 17.2836C155.818 17.1489 155.547 16.9089 155.148 16.568C154.749 16.227 154.236 15.9155 153.608 15.6335C152.981 15.3515 152.221 15.2083 151.331 15.2083C150.143 15.2083 149.27 15.4904 148.71 16.0586C148.15 16.6269 147.87 17.191 147.87 17.7592C147.87 18.5506 148.197 19.203 148.845 19.7124C149.494 20.2217 150.758 20.6679 152.629 21.0551C153.816 21.3035 154.927 21.7076 155.966 22.2632C157.006 22.8189 157.845 23.5892 158.486 24.5742C159.126 25.5592 159.444 26.822 159.444 28.3626C159.444 29.6759 159.092 30.8587 158.384 31.9153C157.676 32.9676 156.7 33.8011 155.458 34.4114C154.215 35.0218 152.803 35.3291 151.229 35.3291C149.723 35.3291 148.392 35.1018 147.238 34.6514C146.084 34.1968 145.105 33.6369 144.295 32.9676C143.468 32.2983 142.823 31.6669 142.344 31.0776Z" fill="white" fill-opacity="0.9"/>
<path d="M162.481 26.7294C162.481 25.1888 162.846 23.7744 163.575 22.4822C164.305 21.1899 165.314 20.1586 166.603 19.3883C167.893 18.618 169.394 18.2307 171.108 18.2307C172.821 18.2307 174.322 18.618 175.612 19.3883C176.901 20.1586 177.91 21.1899 178.644 22.4822C179.374 23.7744 179.738 25.1888 179.738 26.7294C179.738 28.27 179.374 29.6844 178.644 30.9766C177.915 32.2689 176.901 33.3044 175.612 34.0874C174.322 34.8703 172.821 35.2618 171.108 35.2618C169.394 35.2618 167.893 34.8703 166.603 34.0874C165.314 33.3044 164.305 32.2689 163.575 30.9766C162.846 29.6844 162.481 28.27 162.481 26.7294ZM171.108 31.7933C172.134 31.7933 172.986 31.5323 173.661 31.0103C174.335 30.4884 174.836 29.8359 175.166 29.0572C175.497 28.2742 175.663 27.4997 175.663 26.7294C175.663 25.9591 175.497 25.1888 175.166 24.4185C174.836 23.6482 174.331 23.0041 173.661 22.4822C172.986 21.9602 172.138 21.6992 171.108 21.6992C170.081 21.6992 169.229 21.9602 168.559 22.4822C167.884 23.0041 167.384 23.6482 167.053 24.4185C166.722 25.1888 166.557 25.9591 166.557 26.7294C166.557 27.4997 166.722 28.2742 167.053 29.0572C167.384 29.8401 167.884 30.4926 168.559 31.0103C169.229 31.5323 170.081 31.7933 171.108 31.7933Z" fill="white" fill-opacity="0.9"/>
<path d="M182.885 28.4636V18.7778H186.927V28.4299C186.927 29.4275 187.207 30.2104 187.767 30.7745C188.327 31.3428 189.052 31.6248 189.943 31.6248C191.063 31.6248 191.987 31.2165 192.717 30.3999C193.446 29.5833 193.811 28.5856 193.811 27.407V18.7778H197.853V34.7187H193.985L193.883 32.9171C193.472 33.3717 192.882 33.8389 192.119 34.3272C191.355 34.8155 190.333 35.0596 189.052 35.0596C187.067 35.0596 185.541 34.4577 184.48 33.258C183.42 32.0541 182.885 30.4546 182.885 28.4636Z" fill="white" fill-opacity="0.9"/>
<path d="M201.823 34.7146V18.778H205.691L205.792 20.7816C206.043 20.4659 206.378 20.1292 206.802 19.7798C207.226 19.4304 207.748 19.1232 208.375 18.8622C209.003 18.6012 209.749 18.4707 210.619 18.4707C211.009 18.4707 211.357 18.4917 211.662 18.5381C211.972 18.5844 212.286 18.6643 212.604 18.7738L211.781 22.5454C211.234 22.3391 210.615 22.2381 209.932 22.2381C208.812 22.2381 207.854 22.5917 207.056 23.2904C206.259 23.9934 205.856 24.9321 205.856 26.1107V34.7104H201.823V34.7146Z" fill="white" fill-opacity="0.9"/>
<path d="M226.307 30.0253L228.703 32.6099C227.948 33.4012 227.054 34.0368 226.014 34.5125C224.975 34.9882 223.784 35.2281 222.435 35.2281C220.607 35.2281 219.05 34.8703 217.761 34.1589C216.472 33.4433 215.488 32.4499 214.818 31.1661C214.143 29.8864 213.808 28.4089 213.808 26.7294C213.808 25.1888 214.173 23.7744 214.902 22.4822C215.632 21.1899 216.641 20.1586 217.931 19.3883C219.22 18.618 220.721 18.2307 222.435 18.2307C223.737 18.2307 224.924 18.4622 225.997 18.9253C227.071 19.3883 227.982 20.0197 228.737 20.811L226.167 23.3956C225.735 22.8736 225.204 22.4653 224.577 22.1707C223.949 21.876 223.236 21.7287 222.435 21.7287C221.409 21.7287 220.556 21.9686 219.886 22.4443C219.212 22.9199 218.711 23.5387 218.38 24.2964C218.049 25.0541 217.884 25.8665 217.884 26.7252C217.884 27.5166 218.049 28.2995 218.38 29.0698C218.711 29.8401 219.212 30.4757 219.886 30.9724C220.56 31.4733 221.409 31.7217 222.435 31.7217C223.232 31.7217 223.97 31.5702 224.645 31.2629C225.319 30.9598 225.875 30.5473 226.307 30.0253Z" fill="white" fill-opacity="0.9"/>
<path d="M243.806 29.9579L245.999 32.4036C245.931 32.4709 245.74 32.6603 245.435 32.9634C245.13 33.2665 244.68 33.599 244.099 33.9484C243.518 34.2978 242.776 34.605 241.872 34.866C240.969 35.127 239.892 35.2575 238.636 35.2575C236.923 35.2575 235.434 34.8871 234.166 34.1546C232.898 33.418 231.91 32.3951 231.206 31.0776C230.497 29.7643 230.145 28.2573 230.145 26.5568C230.145 24.9951 230.493 23.585 231.189 22.3264C231.884 21.0678 232.843 20.0701 234.064 19.3377C235.286 18.6011 236.694 18.2349 238.293 18.2349C239.777 18.2349 241.02 18.4958 242.025 19.0178C243.03 19.5398 243.84 20.2343 244.455 21.1099C245.07 21.9812 245.516 22.962 245.791 24.048C246.067 25.134 246.203 26.2453 246.203 27.3776V27.9543H234.217C234.217 28.7246 234.437 29.3981 234.883 29.9748C235.328 30.5514 235.892 31.006 236.579 31.3344C237.262 31.6627 237.962 31.8269 238.666 31.8269C239.718 31.8269 240.583 31.709 241.27 31.4691C241.953 31.2334 242.504 30.964 242.916 30.6693C243.327 30.3789 243.624 30.1389 243.806 29.9579ZM234.183 25.0624H242.059C242.059 24.5194 241.915 23.9806 241.631 23.446C241.346 22.9157 240.927 22.4737 240.379 22.1201C239.832 21.7707 239.137 21.5939 238.293 21.5939C237.402 21.5939 236.656 21.7707 236.049 22.1201C235.443 22.4695 234.98 22.9115 234.662 23.446C234.344 23.9806 234.183 24.5194 234.183 25.0624Z" fill="white" fill-opacity="0.9"/>
<path fill-rule="evenodd" clip-rule="evenodd" d="M18.6698 46.6861C19.6071 47.2249 20.6505 47.4901 21.6981 47.4901C22.7414 47.4901 23.7847 47.2249 24.7136 46.6945L40.3679 37.817C42.2298 36.7478 43.3919 34.7568 43.3919 32.6226V14.8718C43.3919 13.9159 43.1605 12.9895 42.7376 12.1617C42.7025 12.0302 42.6494 11.9011 42.5775 11.7777C42.4958 11.6376 42.3956 11.5147 42.2817 11.4104C41.7841 10.7109 41.1344 10.1138 40.3637 9.67323L24.7221 0.804118C22.8559 -0.265058 20.5402 -0.265058 18.6783 0.799909L3.02399 9.67744C2.26063 10.1158 1.6149 10.7084 1.11867 11.4024C1.00118 11.5085 0.897954 11.634 0.814208 11.7777C0.740676 11.9038 0.686852 12.0359 0.651784 12.1704C0.23091 12.9955 0 13.9186 0 14.8718V32.6226C0 34.7568 1.16209 36.7478 3.03247 37.817L18.6698 46.6861ZM40.2322 32.6142V14.9357L23.2547 24.6846V43.9061L38.7944 35.0935C39.6766 34.5884 40.2322 33.6371 40.2322 32.6142ZM4.60172 35.0977L20.1416 43.9092V24.6849L3.15547 14.9332V32.6184C3.15547 33.6371 3.71107 34.5884 4.60172 35.0977ZM21.698 21.9559L38.5673 12.2684L23.1486 3.51915C22.699 3.26238 22.1943 3.13189 21.6938 3.13189C21.1934 3.13189 20.6971 3.25817 20.2518 3.51494L4.82058 12.266L21.698 21.9559ZM11.8159 13.714C14.3691 11.2347 17.8554 9.71094 21.6937 9.71094C25.5362 9.71094 29.0225 11.2347 31.5757 13.714L28.7044 15.3599C26.8001 13.7898 24.3529 12.8427 21.6937 12.8427C19.0344 12.8427 16.5873 13.794 14.6872 15.3599L11.8159 13.714ZM10.8659 21.9349C10.7683 22.52 10.7132 23.1262 10.7132 23.7449C10.7132 28.4257 13.6947 32.4162 17.8724 33.9652V37.2612C11.9262 35.6027 7.55347 30.1726 7.55347 23.7491C7.55347 22.5537 7.70615 21.3919 7.99031 20.2848L10.8659 21.9349ZM32.5258 21.9307L35.4013 20.2806C35.6855 21.3919 35.8382 22.5537 35.8382 23.7407C35.8382 30.1642 31.4612 35.5901 25.515 37.2527V33.9568C29.6969 32.412 32.6784 28.4215 32.6784 23.7407C32.6784 23.1219 32.6233 22.52 32.5258 21.9307Z" fill="#70CCD3"/>
<path d="M206.284 50.6385L204.571 47.0732C204.164 46.2271 203.744 45.2758 203.6 44.8254L203.566 44.8591C203.621 45.4947 203.634 46.2945 203.642 46.9638L203.684 50.6385H202.438V43.0491H203.875L205.733 46.7533C206.085 47.4563 206.416 48.3529 206.518 48.7064L206.551 48.6728C206.518 48.2897 206.441 47.2037 206.441 46.5134L206.42 43.0491H207.625V50.6385H206.284Z" fill="white"/>
<path d="M210.967 45.8694C210.279 45.8694 209.906 46.4082 209.906 47.3048H211.972C211.972 46.4082 211.577 45.8694 210.967 45.8694ZM209.898 48.1929V48.2813C209.898 49.0474 210.186 49.8598 211.28 49.8598C211.798 49.8598 212.252 49.6746 212.672 49.3126L213.147 50.0493C212.561 50.5418 211.887 50.7859 211.136 50.7859C209.554 50.7859 208.562 49.6578 208.562 47.8814C208.562 46.9049 208.774 46.2566 209.257 45.7094C209.711 45.1959 210.262 44.9644 210.971 44.9644C211.522 44.9644 212.031 45.1075 212.506 45.5326C212.994 45.9704 213.236 46.6523 213.236 47.9446V48.1971H209.898V48.1929Z" fill="white"/>
<path d="M219.695 50.6596H218.558L217.871 48.1045C217.693 47.4478 217.507 46.5933 217.507 46.5933H217.485C217.485 46.5933 217.396 47.1405 217.121 48.1592L216.446 50.6596H215.31L213.787 45.1664L214.991 45.0022L215.598 47.6878C215.751 48.3781 215.886 49.1442 215.886 49.1442H215.92C215.92 49.1442 216.031 48.4202 216.243 47.6541L216.959 45.0864H218.151L218.779 47.5867C219.012 48.4875 219.131 49.1652 219.131 49.1652H219.165C219.165 49.1652 219.296 48.3192 219.441 47.6751L220.013 45.0864H221.273L219.695 50.6596Z" fill="white"/>
<path d="M226.587 44.0719H225.891V46.4713H226.545C227.206 46.4713 227.563 46.3829 227.792 46.1514C227.999 45.9451 228.135 45.6252 228.135 45.2295C228.135 44.4676 227.715 44.0719 226.587 44.0719ZM228.356 50.6385L227.694 49.4641C227.164 48.5339 226.812 48.0077 226.392 47.591C226.248 47.4478 226.137 47.3721 225.896 47.3595V50.6385H224.649V43.0491H226.981C228.695 43.0491 229.467 44.0341 229.467 45.2211C229.467 46.3071 228.759 47.3047 227.567 47.3047C227.842 47.4478 228.351 48.1803 228.75 48.8159L229.878 50.6343H228.356V50.6385Z" fill="white"/>
<path d="M232.609 45.8694C231.927 45.8694 231.549 46.4082 231.549 47.3048H233.615C233.615 46.4082 233.216 45.8694 232.609 45.8694ZM231.536 48.1929V48.2813C231.536 49.0474 231.825 49.8598 232.919 49.8598C233.436 49.8598 233.89 49.6746 234.31 49.3126L234.785 50.0493C234.2 50.5418 233.526 50.7859 232.775 50.7859C231.197 50.7859 230.2 49.6578 230.2 47.8814C230.2 46.9049 230.412 46.2566 230.896 45.7094C231.35 45.1959 231.901 44.9644 232.609 44.9644C233.161 44.9644 233.67 45.1075 234.145 45.5326C234.633 45.9704 234.874 46.6523 234.874 47.9446V48.1971H231.536V48.1929Z" fill="white"/>
<path d="M237.148 50.7605C235.922 50.7605 235.922 49.6661 235.922 49.1905V44.4634C235.922 43.7057 235.888 43.3016 235.812 42.8385L237.059 42.5649C237.148 42.9059 237.156 43.3647 237.156 44.0887V48.7906C237.156 49.5356 237.19 49.6577 237.279 49.7882C237.347 49.885 237.534 49.9397 237.678 49.8766L237.877 50.6216C237.657 50.7142 237.423 50.7605 237.148 50.7605Z" fill="white"/>
<path d="M238.653 50.6384V45.1789L239.879 44.96V50.6384H238.653ZM239.26 44.2697C238.819 44.2697 238.475 43.9076 238.475 43.4699C238.475 43.0195 238.827 42.6575 239.281 42.6575C239.714 42.6575 240.078 43.0068 240.078 43.4699C240.078 43.9076 239.714 44.2697 239.26 44.2697Z" fill="white"/>
<path d="M243.357 50.7816C241.834 50.7816 240.982 49.7167 240.982 47.9319C240.982 45.9156 242.199 44.9517 243.446 44.9517C244.052 44.9517 244.493 45.0948 244.994 45.5536L244.387 46.3534C244.057 46.0587 243.768 45.924 243.45 45.924C243.064 45.924 242.742 46.1219 242.568 46.4839C242.402 46.8248 242.335 47.3384 242.335 48.0287C242.335 48.7864 242.458 49.2662 242.712 49.5399C242.89 49.7377 243.153 49.8598 243.454 49.8598C243.84 49.8598 244.218 49.6746 244.582 49.3126L245.155 50.0492C244.638 50.5501 244.107 50.7816 243.357 50.7816Z" fill="white"/>
<path d="M246.249 49.6451C246.228 49.6367 246.19 49.6324 246.147 49.6324H246.08V49.8808H246.143C246.224 49.8808 246.258 49.8724 246.283 49.8513C246.304 49.8303 246.317 49.7966 246.317 49.7587C246.313 49.6998 246.292 49.6619 246.249 49.6451ZM246.343 50.3985C246.309 50.3354 246.292 50.3144 246.258 50.247C246.169 50.0828 246.139 50.0365 246.105 50.0239C246.097 50.0197 246.088 50.0155 246.075 50.0155V50.3985H245.893V49.4851H246.237C246.398 49.4851 246.508 49.5946 246.508 49.7503C246.508 49.8892 246.415 49.9987 246.304 50.0029C246.321 50.0197 246.33 50.0281 246.343 50.0408C246.393 50.1081 246.563 50.3943 246.563 50.3943H246.343V50.3985ZM246.181 49.2915C245.834 49.2915 245.554 49.5819 245.554 49.9439C245.554 50.3059 245.834 50.6006 246.181 50.6006C246.529 50.6006 246.813 50.3059 246.813 49.9439C246.813 49.5819 246.533 49.2915 246.181 49.2915ZM246.181 50.7606C245.732 50.7606 245.367 50.4028 245.367 49.9481C245.367 49.4935 245.736 49.1357 246.181 49.1357C246.631 49.1357 246.996 49.4977 246.996 49.9481C247 50.4028 246.631 50.7606 246.181 50.7606Z" fill="#12100B"/>
<path d="M191.317 50.1712C189.799 50.1712 188.569 48.9505 188.569 47.4435C188.569 45.9366 189.799 44.7159 191.317 44.7159C192.835 44.7159 194.065 45.9366 194.065 47.4435C194.065 48.9463 192.835 50.1712 191.317 50.1712ZM198.128 45.9703C197.48 43.0111 193.904 41.2684 190.142 42.0808C186.38 42.8932 183.857 45.9492 184.501 48.9084C185.15 51.8676 188.726 53.6103 192.488 52.7978C196.254 51.9897 198.777 48.9294 198.128 45.9703Z" fill="#00899A"/>
<path d="M191.317 49.8259C189.99 49.8259 188.917 48.761 188.917 47.4434C188.917 46.1259 189.99 45.0609 191.317 45.0609C192.645 45.0609 193.718 46.1259 193.718 47.4434C193.718 48.7568 192.64 49.8259 191.317 49.8259ZM191.924 43.6213C189.744 43.6213 187.979 45.3766 187.979 47.536C187.979 49.6996 189.748 51.4549 191.924 51.4549C194.104 51.4549 195.872 49.6996 195.872 47.536C195.872 45.3766 194.104 43.6213 191.924 43.6213Z" fill="#80CBD5"/>
</svg>
