<svg width="79" height="15" viewBox="0 0 79 15" fill="none" xmlns="http://www.w3.org/2000/svg">
<path d="M27.3532 11.5265L25.2123 7.03794C24.7012 5.9744 24.1763 4.773 23.9971 4.20677L23.9558 4.24812C24.0247 5.0487 24.0385 6.05711 24.0523 6.89904L24.1074 11.5254H22.5466V1.97046H24.3418L26.6618 6.63819C27.104 7.52147 27.5176 8.65394 27.6427 9.09611L27.684 9.05476C27.6427 8.57123 27.5462 7.20442 27.5462 6.33386L27.5186 1.97046H29.0243V11.5265H27.3532Z" fill="white" fill-opacity="0.9"/>
<path d="M31.8682 8.44697V8.55725C31.8682 9.5243 32.2277 10.5454 33.5945 10.5454C34.2434 10.5454 34.8096 10.3111 35.3345 9.85514L35.9283 10.7808C35.1967 11.4022 34.3537 11.7065 33.4153 11.7065C31.4409 11.7065 30.1981 10.2846 30.1981 8.04721C30.1981 6.81825 30.46 6.00283 31.0687 5.31253C31.6349 4.66359 32.3252 4.37305 33.2096 4.37305C33.8999 4.37305 34.535 4.55225 35.1288 5.09091C35.7364 5.64336 36.0407 6.49908 36.0407 8.12886V8.44697H31.8682ZM33.2085 5.5193C32.3528 5.5193 31.883 6.19581 31.883 7.32829H34.465C34.465 6.19581 33.9677 5.5193 33.2085 5.5193Z" fill="white" fill-opacity="0.9"/>
<path d="M44.1176 11.554H42.6946L41.8388 8.33689C41.6183 7.50874 41.3829 6.43141 41.3829 6.43141H41.3553C41.3553 6.43141 41.245 7.12171 40.8994 8.40581L40.0574 11.554H38.6355L36.7289 4.63621L38.2347 4.42944L38.9939 7.81307C39.1869 8.68257 39.3533 9.64962 39.3533 9.64962H39.3947C39.3947 9.64962 39.5325 8.73771 39.7955 7.77171L40.6936 4.54078H42.1856L42.9724 7.68901C43.2629 8.82148 43.4145 9.67719 43.4145 9.67719H43.4559C43.4559 9.67719 43.6213 8.61364 43.8016 7.79928L44.5194 4.53972H46.0941L44.1176 11.554Z" fill="white" fill-opacity="0.9"/>
<path d="M54.9428 11.5265L54.1147 10.0483C53.4519 8.8745 53.0098 8.21177 52.4849 7.68689C52.3057 7.50769 52.1668 7.41119 51.8635 7.39741V11.5265H50.3037V1.97046H53.2176C55.3585 1.97046 56.3244 3.21321 56.3244 4.70514C56.3244 6.07195 55.4412 7.32954 53.9492 7.32954C54.2949 7.50875 54.9301 8.43444 55.4263 9.23502L56.8355 11.5265H54.9428ZM52.7341 3.25456H51.8635V6.27978H52.6779C53.506 6.27978 53.9482 6.16951 54.2387 5.87896C54.5006 5.61705 54.6671 5.21624 54.6671 4.71893C54.6671 3.75187 54.1422 3.25456 52.7341 3.25456Z" fill="white" fill-opacity="0.9"/>
<path d="M58.9203 8.44697V8.55725C58.9203 9.5243 59.2798 10.5454 60.6466 10.5454C61.2955 10.5454 61.8618 10.3111 62.3867 9.85514L62.9805 10.7808C62.2488 11.4022 61.4058 11.7065 60.4674 11.7065C58.493 11.7065 57.2502 10.2846 57.2502 8.04721C57.2502 6.81825 57.5122 6.00283 58.1208 5.31253C58.687 4.66359 59.3773 4.37305 60.2617 4.37305C60.952 4.37305 61.5871 4.55225 62.1809 5.09091C62.7885 5.64336 63.0929 6.49908 63.0929 8.12886V8.44697H58.9203ZM60.2596 5.5193C59.4038 5.5193 58.9341 6.19581 58.9341 7.32829H61.5161C61.5161 6.19581 61.0188 5.5193 60.2596 5.5193Z" fill="white" fill-opacity="0.9"/>
<path d="M65.9346 11.6791C64.4013 11.6791 64.4013 10.2985 64.4013 9.70469V3.7518C64.4013 2.79853 64.3599 2.28849 64.2634 1.70847L65.8243 1.36279C65.9346 1.79118 65.9483 2.3712 65.9483 3.28205V9.20632C65.9483 10.1458 65.9897 10.2974 66.1 10.4628C66.1827 10.5869 66.4181 10.6558 66.5973 10.5731L66.8454 11.5126C66.5697 11.6239 66.2802 11.6791 65.9346 11.6791Z" fill="white" fill-opacity="0.9"/>
<path d="M68.5728 3.50374C68.0204 3.50374 67.592 3.04779 67.592 2.49534C67.592 1.9291 68.0341 1.47314 68.6004 1.47314C69.139 1.47314 69.595 1.91532 69.595 2.49534C69.5939 3.04779 69.138 3.50374 68.5728 3.50374ZM67.8125 11.5265V4.65L69.3458 4.37324V11.5265H67.8125Z" fill="white" fill-opacity="0.9"/>
<path d="M73.6954 11.7066C71.7899 11.7066 70.7264 10.3673 70.7264 8.11616C70.7264 5.57553 72.2459 4.36035 73.8057 4.36035C74.5649 4.36035 75.1173 4.53955 75.7387 5.11957L74.9795 6.12798C74.5649 5.75473 74.2065 5.58931 73.8057 5.58931C73.3221 5.58931 72.9213 5.83744 72.7008 6.2934C72.494 6.72178 72.4113 7.37073 72.4113 8.24023C72.4113 9.19349 72.5629 9.80108 72.881 10.1457C73.1016 10.3938 73.4335 10.5465 73.8067 10.5465C74.2903 10.5465 74.76 10.3122 75.2149 9.85622L75.9328 10.7819C75.2976 11.416 74.6349 11.7066 73.6954 11.7066Z" fill="white" fill-opacity="0.9"/>
<path d="M77.2286 11.6801C76.6687 11.6801 76.2085 11.2284 76.2085 10.6548C76.2085 10.0843 76.6687 9.62939 77.2286 9.62939C77.7884 9.62939 78.2486 10.0843 78.2486 10.6548C78.2486 11.2274 77.7874 11.6801 77.2286 11.6801ZM77.2286 9.83298C76.7928 9.83298 76.4428 10.1967 76.4428 10.6548C76.4428 11.1128 76.7928 11.4819 77.2286 11.4819C77.6644 11.4819 78.0175 11.1128 78.0175 10.6548C78.0164 10.1967 77.6633 9.83298 77.2286 9.83298ZM77.429 11.2221C77.3844 11.1447 77.3654 11.115 77.3219 11.0323C77.2084 10.8255 77.1734 10.7672 77.1321 10.7513C77.1215 10.746 77.1098 10.7428 77.096 10.7428V11.2231H76.8702V10.0726H77.2975C77.5011 10.0726 77.6368 10.2084 77.6368 10.4088C77.6368 10.5827 77.5212 10.7226 77.3802 10.7258C77.4025 10.7449 77.4131 10.7566 77.4269 10.7756C77.4926 10.8584 77.7025 11.2221 77.7025 11.2221H77.429ZM77.3081 10.2741C77.2837 10.2656 77.2339 10.2571 77.1787 10.2571H77.096V10.5689H77.1734C77.2731 10.5689 77.3166 10.5572 77.3473 10.5296C77.3749 10.5021 77.3919 10.4607 77.3919 10.4141C77.3908 10.343 77.3632 10.2953 77.3081 10.2741Z" fill="white" fill-opacity="0.9"/>
<path d="M17.159 5.64866C16.3489 1.92148 11.8784 -0.271358 7.17568 0.751894C2.47296 1.77409 -0.682686 5.62533 0.127433 9.35146C0.937552 13.0786 5.40805 15.2715 10.1108 14.2482C14.8135 13.226 17.9691 9.37584 17.159 5.64866ZM8.64322 10.9356C6.74517 10.9356 5.20764 9.39705 5.20764 7.50006C5.20764 5.60307 6.74623 4.06447 8.64322 4.06447C10.5402 4.06447 12.0788 5.60201 12.0788 7.50006C12.0788 9.39811 10.5402 10.9356 8.64322 10.9356Z" fill="#008C99"/>
<path d="M9.40328 2.69019C6.6792 2.69019 4.47046 4.89893 4.47046 7.623C4.47046 10.3471 6.6792 12.5558 9.40328 12.5558C12.1284 12.5558 14.3372 10.3471 14.3372 7.623C14.3361 4.89893 12.1274 2.69019 9.40328 2.69019ZM8.64299 10.5008C6.98564 10.5008 5.64216 9.15735 5.64216 7.5C5.64216 5.84265 6.98564 4.49917 8.64299 4.49917C10.3003 4.49917 11.6438 5.84265 11.6438 7.5C11.6438 9.15735 10.3003 10.5008 8.64299 10.5008Z" fill="#70CCD3"/>
</svg>
