<svg width="19" height="16" viewBox="0 0 19 16" fill="none" xmlns="http://www.w3.org/2000/svg">
<path opacity="0.7" d="M3.904 15.0241C2.88 15.0241 2.048 14.6615 1.408 13.9361C0.767998 13.1681 0.447998 12.1868 0.447998 10.9921C0.447998 8.94413 1.06666 6.91746 2.304 4.91213C3.584 2.86413 5.12 1.37079 6.912 0.432129L8.32 2.86413C7.25333 3.58946 6.35733 4.35746 5.632 5.16813C4.94933 5.93613 4.52267 6.91746 4.352 8.11213C5.20533 8.1548 5.90933 8.5388 6.464 9.26413C7.06133 9.9468 7.36 10.7148 7.36 11.5681C7.36 12.4641 7.01867 13.2748 6.336 14.0001C5.696 14.6828 4.88533 15.0241 3.904 15.0241ZM13.888 15.0241C12.9493 15.0241 12.1387 14.6615 11.456 13.9361C10.7733 13.1681 10.432 12.1868 10.432 10.9921C10.432 8.94413 11.0507 6.91746 12.288 4.91213C13.568 2.86413 15.1253 1.37079 16.96 0.432129L18.24 2.86413C17.216 3.58946 16.3413 4.35746 15.616 5.16813C14.9333 5.93613 14.5493 6.91746 14.464 8.11213C15.2747 8.1548 15.9573 8.5388 16.512 9.26413C17.1093 9.9468 17.408 10.7148 17.408 11.5681C17.408 12.4641 17.0453 13.2748 16.32 14.0001C15.6373 14.6828 14.8267 15.0241 13.888 15.0241Z" fill="#B9BDBD"/>
</svg>
